<?xml version="1.0" standalone="no"?>
<!DOCTYPE svg PUBLIC "-//W3C//DTD SVG 20010904//EN"
 "http://www.w3.org/TR/2001/REC-SVG-20010904/DTD/svg10.dtd">
<svg version="1.0" xmlns="http://www.w3.org/2000/svg"
 width="251.000000pt" height="66.000000pt" viewBox="0 0 251.000000 66.000000"
 preserveAspectRatio="xMidYMid meet">

<g transform="translate(0.000000,66.000000) scale(0.100000,-0.100000)"
fill="#000000" stroke="none">
<path d="M2303 495 c0 -22 2 -30 4 -17 2 12 2 30 0 40 -3 9 -5 -1 -4 -23z"/>
<path d="M2350 522 c0 -17 32 -52 42 -46 4 3 8 10 8 15 0 6 -4 8 -9 4 -5 -3
-17 5 -25 17 -9 12 -16 17 -16 10z"/>
<path d="M2406 522 c-3 -5 -1 -22 4 -38 8 -29 8 -29 9 9 1 36 -3 45 -13 29z"/>
<path d="M133 484 c-42 -25 -43 -27 -43 -80 0 -30 3 -54 6 -54 3 0 25 12 50
26 43 26 44 27 44 80 0 30 -3 54 -7 54 -5 -1 -27 -12 -50 -26z"/>
<path d="M363 484 c-42 -25 -43 -27 -43 -80 0 -30 3 -54 6 -54 10 0 78 43 86
54 10 14 10 106 1 106 -5 -1 -27 -12 -50 -26z"/>
<path d="M950 442 c-35 -5 -60 -31 -60 -62 0 -33 23 -55 70 -67 43 -11 55 -43
15 -43 -14 0 -39 7 -55 15 -25 13 -29 13 -34 -1 -11 -28 -7 -35 29 -50 44 -18
79 -18 115 1 24 13 30 22 30 49 0 38 -12 51 -66 70 -48 16 -62 52 -17 43 15
-3 38 -8 50 -12 16 -5 23 -2 28 15 4 12 5 23 3 25 -8 9 -85 20 -108 17z"/>
<path d="M710 420 c-19 -36 -80 -181 -80 -192 0 -5 12 -8 26 -6 23 3 31 14 56
78 16 41 31 76 33 78 1 2 15 -30 30 -70 33 -87 36 -90 68 -86 l26 3 -44 105
c-40 98 -45 105 -73 108 -23 2 -34 -2 -42 -18z"/>
<path d="M1119 430 c-22 -13 -32 -55 -19 -79 5 -11 27 -25 47 -32 68 -21 85
-49 30 -49 -18 0 -42 7 -54 15 -20 14 -23 14 -33 -5 -6 -11 -8 -24 -5 -29 10
-17 77 -33 112 -28 91 15 100 102 13 128 -48 15 -70 36 -46 45 9 3 30 1 48 -5
28 -10 35 -9 46 6 11 15 10 20 -5 30 -20 15 -111 17 -134 3z"/>
<path d="M1300 329 l0 -110 28 3 27 3 3 108 3 107 -31 0 -30 0 0 -111z"/>
<path d="M1400 330 l0 -110 55 0 c101 0 155 39 155 113 0 77 -41 107 -145 107
l-65 0 0 -110z m136 44 c20 -19 24 -31 19 -52 -10 -40 -24 -52 -61 -52 l-34 0
0 65 c0 63 1 65 25 65 14 0 37 -11 51 -26z"/>
<path d="M1641 356 c4 -96 19 -121 75 -132 43 -8 79 1 104 26 17 17 20 34 20
105 0 84 0 85 -25 85 -24 0 -25 -2 -25 -66 0 -76 -12 -104 -43 -104 -38 0 -47
19 -47 97 l0 73 -31 0 -31 0 3 -84z"/>
<path d="M1881 356 c4 -96 19 -121 75 -132 43 -8 79 1 104 26 17 17 20 34 20
105 0 84 0 85 -25 85 -24 0 -25 -2 -25 -66 0 -76 -12 -104 -43 -104 -38 0 -47
19 -47 97 l0 73 -31 0 -31 0 3 -84z"/>
<path d="M2140 420 c-40 -40 -20 -82 50 -105 58 -19 68 -45 17 -45 -18 0 -42
7 -54 15 -20 14 -23 14 -33 -4 -15 -28 -14 -31 25 -47 49 -20 98 -18 129 7 46
36 29 91 -34 110 -48 15 -70 36 -46 45 9 3 30 1 48 -5 28 -10 35 -9 46 6 19
26 -10 43 -75 43 -40 0 -58 -5 -73 -20z"/>
<path d="M243 284 c-42 -25 -43 -27 -43 -80 0 -30 3 -54 6 -54 3 0 25 12 50
26 43 26 44 27 44 80 0 30 -3 54 -7 54 -5 -1 -27 -12 -50 -26z"/>
<path d="M473 284 c-42 -25 -43 -26 -43 -80 0 -30 2 -54 4 -54 2 0 24 12 50
26 46 26 46 26 46 80 0 30 -3 54 -7 54 -5 0 -27 -12 -50 -26z"/>
<path d="M732 285 c-16 -35 -16 -35 14 -35 22 0 24 3 19 23 -11 36 -21 39 -33
12z"/>
</g>
</svg>
